<svg width="14" height="14" viewBox="0 0 14 14" fill="none" xmlns="http://www.w3.org/2000/svg">
<g clip-path="url(#clip0_228_986)">
<path d="M13.3744 7.31202C13.2776 6.25602 12.996 5.13843 10.9456 5.13843H2.7968C0.746406 5.13843 0.473607 6.26482 0.368007 7.31202L0.00720816 11.2016C-0.0367917 11.6856 0.121608 12.1696 0.456007 12.5392C0.799206 12.9088 1.27441 13.12 1.7848 13.12H2.9816C4.02 13.12 4.2136 12.5304 4.3456 12.1344L4.4776 11.7472C4.6272 11.3072 4.6624 11.2016 5.2344 11.2016H8.50799C9.07999 11.2016 9.09759 11.2632 9.26479 11.7472L9.39679 12.1344C9.51999 12.5304 9.72238 13.12 10.752 13.12H11.9488C12.4504 13.12 12.9344 12.9088 13.2776 12.5392C13.612 12.1784 13.7704 11.6856 13.7264 11.2016L13.3744 7.31202ZM4.9528 8.64962H3.0432C2.7792 8.64962 2.568 8.42962 2.568 8.17442C2.568 7.91922 2.788 7.69922 3.0432 7.69922H4.9616C5.2256 7.69922 5.4368 7.91922 5.4368 8.17442C5.4368 8.42962 5.2168 8.64962 4.9528 8.64962ZM10.6992 8.64962H8.78079C8.51679 8.64962 8.30559 8.42962 8.30559 8.17442C8.30559 7.91922 8.52559 7.69922 8.78079 7.69922H10.6992C10.9632 7.69922 11.1744 7.91922 11.1744 8.17442C11.1744 8.42962 10.9632 8.64962 10.6992 8.64962Z" fill="white"/>
<path d="M13.1898 3.78399C13.1898 4.04799 12.9698 4.25919 12.7146 4.25919H1.21299C0.948993 4.25919 0.737793 4.03919 0.737793 3.78399C0.737793 3.51999 0.957793 3.30879 1.21299 3.30879H1.86419L2.11059 2.15599C2.33939 1.0296 2.81459 0 4.71538 0H9.19457C11.0954 0 11.5794 1.0296 11.8082 2.14719L12.0546 3.29999H12.7058C12.9698 3.29999 13.1898 3.51999 13.1898 3.78399Z" fill="white"/>
</g>
<defs>
<clipPath id="clip0_228_986">
<rect width="14" height="14" fill="white"/>
</clipPath>
</defs>
</svg>
